<svg width="450" height="450" viewBox="0 0 450 450" fill="none" xmlns="http://www.w3.org/2000/svg">
<g id="Frame 22">
<g id="HeroSvg">
<circle id="Ellipse 74" cx="225" cy="225" r="79" stroke="#828181" stroke-width="2"/>
<circle id="Ellipse 75" cx="225" cy="225" r="111.12" stroke="#A5A3A3" stroke-width="1.76"/>
<circle id="Ellipse 76" cx="225" cy="225" r="143.28" stroke="#C1C1C1" stroke-width="1.44"/>
<circle id="Ellipse 77" cx="225" cy="225" stroke="#D8D8D8" stroke-width="0.8" class='outerCircle'/>
<g id="ic:outline-coronavirus" class='coronavirus'>
<path id="Vector" d="M219 225C219 226.32 217.92 227.4 216.6 227.4C215.28 227.4 214.2 226.32 214.2 225C214.2 223.68 215.28 222.6 216.6 222.6C217.92 222.6 219 223.68 219 225ZM229.2 220.2C230.52 220.2 231.6 219.12 231.6 217.8C231.6 216.48 230.52 215.4 229.2 215.4C227.88 215.4 226.8 216.48 226.8 217.8C226.8 219.12 227.88 220.2 229.2 220.2ZM220.8 220.2C222.12 220.2 223.2 219.12 223.2 217.8C223.2 216.48 222.12 215.4 220.8 215.4C219.48 215.4 218.4 216.48 218.4 217.8C218.4 219.12 219.48 220.2 220.8 220.2ZM220.8 229.8C219.48 229.8 218.4 230.88 218.4 232.2C218.4 233.52 219.48 234.6 220.8 234.6C222.12 234.6 223.2 233.52 223.2 232.2C223.2 230.88 222.12 229.8 220.8 229.8ZM249 223.2V226.8C249 227.784 248.184 228.6 247.2 228.6C246.216 228.6 245.4 227.784 245.4 226.8H241.704C241.358 230.011 240.091 233.053 238.056 235.56L240.672 238.176L240.696 238.152C241.392 237.456 242.544 237.456 243.24 238.152C243.936 238.848 243.936 240 243.24 240.696L240.696 243.24C240 243.936 238.848 243.936 238.152 243.24C237.82 242.906 237.632 242.456 237.627 241.985C237.623 241.514 237.803 241.06 238.128 240.72L235.512 238.104C233.006 240.122 229.974 241.38 226.776 241.728V245.424H226.8C227.784 245.424 228.6 246.24 228.6 247.224C228.6 248.208 227.784 249.024 226.8 249.024H223.2C222.216 249.024 221.4 248.208 221.4 247.224C221.4 246.24 222.192 245.448 223.176 245.424V241.704C219.984 241.36 216.959 240.102 214.464 238.08L211.848 240.696L211.872 240.72C212.568 241.416 212.568 242.568 211.872 243.264C211.176 243.96 210.024 243.96 209.328 243.264L206.76 240.696C206.425 240.357 206.238 239.9 206.238 239.424C206.238 238.948 206.425 238.491 206.76 238.152C207.456 237.456 208.584 237.456 209.28 238.128L211.896 235.512C209.876 233.019 208.625 229.992 208.296 226.8H204.6C204.6 227.784 203.784 228.6 202.8 228.6C201.816 228.6 201 227.784 201 226.8V223.2C201 222.216 201.816 221.4 202.8 221.4C203.784 221.4 204.6 222.216 204.6 223.2H208.296C208.656 219.912 209.952 216.936 211.896 214.488L209.28 211.872C208.584 212.544 207.456 212.544 206.76 211.848C206.425 211.509 206.238 211.052 206.238 210.576C206.238 210.1 206.425 209.643 206.76 209.304L209.304 206.76C210 206.064 211.152 206.064 211.848 206.76C212.544 207.456 212.544 208.608 211.848 209.304L211.824 209.328L214.44 211.944C216.937 209.926 219.961 208.669 223.152 208.32V204.6C222.679 204.592 222.229 204.399 221.897 204.062C221.565 203.726 221.378 203.273 221.376 202.8C221.388 202.322 221.585 201.868 221.925 201.532C222.265 201.197 222.722 201.006 223.2 201H226.8C227.784 201 228.6 201.816 228.6 202.8C228.6 203.784 227.784 204.6 226.8 204.6H226.776V208.296C230.064 208.632 233.064 209.952 235.512 211.92L238.128 209.304C237.964 209.137 237.834 208.939 237.747 208.722C237.659 208.505 237.615 208.273 237.618 208.039C237.62 207.805 237.668 207.574 237.76 207.358C237.852 207.143 237.985 206.948 238.152 206.784C238.848 206.088 240 206.088 240.696 206.784L243.24 209.328C243.936 210.024 243.936 211.176 243.24 211.872C242.544 212.568 241.392 212.568 240.696 211.872L240.672 211.848L238.056 214.44C240.086 216.951 241.352 219.991 241.704 223.2H245.4C245.4 222.216 246.216 221.4 247.2 221.4C248.184 221.4 249 222.216 249 223.2V223.2ZM237 225C237 218.376 231.624 213 225 213C218.376 213 213 218.376 213 225C213 231.624 218.376 237 225 237C231.624 237 237 231.624 237 225ZM225 222.6C223.68 222.6 222.6 223.68 222.6 225C222.6 226.32 223.68 227.4 225 227.4C226.32 227.4 227.4 226.32 227.4 225C227.4 223.68 226.32 222.6 225 222.6ZM233.4 222.6C232.08 222.6 231 223.68 231 225C231 226.32 232.08 227.4 233.4 227.4C234.72 227.4 235.8 226.32 235.8 225C235.8 223.68 234.72 222.6 233.4 222.6ZM229.2 229.8C227.88 229.8 226.8 230.88 226.8 232.2C226.8 233.52 227.88 234.6 229.2 234.6C230.52 234.6 231.6 233.52 231.6 232.2C231.6 230.88 230.52 229.8 229.2 229.8Z" fill='black'/>
</g>
<g id="activeCases 1" class='activeCases'>
<g clip-path="url(#clip0_862:211)">
<g id="active cases">
<path id="Vector_2" d="M364.2 305H354.6C351.949 305 349.8 307.149 349.8 309.8V325.8C349.8 328.451 351.949 330.6 354.6 330.6H364.2C366.851 330.6 369 328.451 369 325.8V309.8C369 307.149 366.851 305 364.2 305Z"/>
<path id="Vector_3" d="M364.2 279.4H322.6C319.949 279.4 317.8 281.549 317.8 284.2V292.2C317.8 294.851 319.949 297 322.6 297H364.2C366.851 297 369 294.851 369 292.2V284.2C369 281.549 366.851 279.4 364.2 279.4Z"/>
<path id="Vector_4" d="M337 306.6H319.4V329H337V306.6Z" stroke="black" stroke-width="4.096" fill='transparent'/>
</g>
</g>
</g>
<g id="confirmedCases 1" class='confirmedCases'>
<g clip-path="url(#clip1_862:211)">
<g id="confirm cases">
<path id="Vector_5" d="M143.45 316.2H116.15C114.41 316.2 113 317.61 113 319.35V346.65C113 348.39 114.41 349.8 116.15 349.8H143.45C145.19 349.8 146.6 348.39 146.6 346.65V319.35C146.6 317.61 145.19 316.2 143.45 316.2Z" fill="#FF6B38"/>
<path id="Vector_6" fill-rule="evenodd" clip-rule="evenodd" d="M115.87 326.096C115.672 325.881 115.392 325.759 115.1 325.759C114.52 325.759 114.05 326.229 114.05 326.809V346.65C114.05 347.81 114.99 348.75 116.15 348.75H134.443C134.708 348.75 134.963 348.65 135.157 348.47C135.582 348.076 135.608 347.412 135.214 346.987L115.87 326.096Z" stroke="black" stroke-width="2.1"/>
</g>
</g>
</g>
<g id="deceasedCases 1" class='deceasedCases'>
<g clip-path="url(#clip2_862:211)">
<g id="deceasedCases">
<path id="Vector_7" d="M117.25 130.6H84.75C82.6789 130.6 81 132.279 81 134.35V166.85C81 168.921 82.6789 170.6 84.75 170.6H117.25C119.321 170.6 121 168.921 121 166.85V134.35C121 132.279 119.321 130.6 117.25 130.6Z"/>
<path id="Vector_8" d="M94.125 131.85V169.35M107.875 131.85V169.35V131.85Z" stroke="black" stroke-width="2.5" stroke-linecap="square"/>
</g>
</g>
</g>
<a href='#recoveredCases'>
<g id="recoveredCases 1" class='recoveredCases'>
<g clip-path="url(#clip3_862:211)">
<g id="recovered cases">
<path id="Vector_9" d="M322.05 63.4H289.55C287.479 63.4 285.8 65.0789 285.8 67.15V99.65C285.8 101.721 287.479 103.4 289.55 103.4H322.05C324.121 103.4 325.8 101.721 325.8 99.65V67.15C325.8 65.0789 324.121 63.4 322.05 63.4Z"/>
<path id="Vector_10" d="M324.55 88.4H310.8V102.15H324.55V88.4Z" stroke="black" stroke-width="3.2"/>
<path id="Vector_11" d="M300.8 64.65H287.05V78.4H300.8V64.65Z" stroke="black" stroke-width="3.2"/>
</g>
</g>
</g>
</a>
</g>
</g>
<defs>
<clipPath id="clip0_862:211">
<rect x="317.8" y="279.4" width="51.2" height="51.2" rx="6.4" fill="white"/>
</clipPath>
<clipPath id="clip1_862:211">
<rect x="113" y="316.2" width="33.6" height="33.6" rx="4.8" fill="white"/>
</clipPath>
<clipPath id="clip2_862:211">
<rect x="81" y="130.6" width="40" height="40" rx="4.8" fill="white"/>
</clipPath>
<clipPath id="clip3_862:211">
<rect x="285.8" y="63.4" width="40" height="40" rx="4.8" fill="white"/>
</clipPath>
</defs>
</svg>
