<svg width="150" height="64" viewBox="0 0 523 206" fill="none" xmlns="http://www.w3.org/2000/svg">
<path d="M182.768 146.56C175.451 146.56 169.739 144.507 165.632 140.4C161.6 136.219 159.584 130.731 159.584 123.936C159.584 117.888 160.779 112.587 163.168 108.032C165.557 103.477 168.656 99.968 172.464 97.504C176.272 95.04 180.267 93.808 184.448 93.808C188.555 93.808 191.728 95.04 193.968 97.504C196.283 99.8933 197.44 102.992 197.44 106.8C197.44 109.936 196.731 112.587 195.312 114.752C193.968 116.917 192.176 118 189.936 118C188.517 118 187.36 117.664 186.464 116.992C185.643 116.32 185.232 115.387 185.232 114.192C185.232 113.669 185.307 113.072 185.456 112.4C185.605 111.728 185.717 111.243 185.792 110.944C186.165 109.824 186.352 108.779 186.352 107.808C186.352 106.837 186.091 106.091 185.568 105.568C185.12 105.045 184.448 104.784 183.552 104.784C181.835 104.784 180.229 105.568 178.736 107.136C177.243 108.629 176.048 110.683 175.152 113.296C174.256 115.909 173.808 118.784 173.808 121.92C173.808 130.581 177.579 134.912 185.12 134.912C188.181 134.912 191.467 133.904 194.976 131.888C198.56 129.797 202.069 126.699 205.504 122.592C206.4 121.547 207.408 121.024 208.528 121.024C209.499 121.024 210.245 121.472 210.768 122.368C211.365 123.264 211.664 124.496 211.664 126.064C211.664 128.901 210.955 131.216 209.536 133.008C206.027 137.339 201.808 140.699 196.88 143.088C192.027 145.403 187.323 146.56 182.768 146.56ZM259.73 111.616C260.701 111.616 261.448 112.101 261.97 113.072C262.493 114.043 262.754 115.275 262.754 116.768C262.754 120.352 261.672 122.48 259.506 123.152C255.026 124.72 250.098 125.616 244.722 125.84C243.304 132.112 240.504 137.152 236.322 140.96C232.141 144.693 227.4 146.56 222.098 146.56C217.618 146.56 213.773 145.477 210.562 143.312C207.426 141.147 205.037 138.272 203.394 134.688C201.752 131.104 200.93 127.221 200.93 123.04C200.93 117.365 202.013 112.325 204.178 107.92C206.344 103.44 209.33 99.968 213.138 97.504C216.946 94.9653 221.165 93.696 225.794 93.696C231.469 93.696 236.024 95.6747 239.458 99.632C242.968 103.515 245.021 108.331 245.618 114.08C249.128 113.856 253.309 113.109 258.162 111.84C258.76 111.691 259.282 111.616 259.73 111.616ZM222.994 134.688C225.384 134.688 227.437 133.717 229.154 131.776C230.946 129.835 232.141 127.035 232.738 123.376C230.424 121.808 228.632 119.755 227.362 117.216C226.168 114.677 225.57 111.989 225.57 109.152C225.57 107.957 225.682 106.763 225.906 105.568H225.346C222.36 105.568 219.858 107.024 217.842 109.936C215.901 112.773 214.93 116.805 214.93 122.032C214.93 126.139 215.714 129.275 217.282 131.44C218.925 133.605 220.829 134.688 222.994 134.688ZM309.675 111.952C309.899 111.877 310.273 111.84 310.795 111.84C311.915 111.84 312.774 112.213 313.371 112.96C313.969 113.707 314.267 114.715 314.267 115.984C314.267 118.299 313.819 120.128 312.923 121.472C312.027 122.741 310.683 123.675 308.891 124.272C305.457 125.392 301.798 125.952 297.915 125.952C294.63 125.952 291.531 125.504 288.619 124.608C286.454 128.117 284.065 131.739 281.451 135.472C278.465 139.728 275.889 142.64 273.723 144.208C271.558 145.776 269.094 146.56 266.331 146.56C263.27 146.56 260.843 145.365 259.051 142.976C257.334 140.587 256.251 136.816 255.803 131.664C254.907 121.211 254.459 112.064 254.459 104.224V100.304C254.534 97.84 255.206 96.1227 256.475 95.152C257.745 94.1813 259.649 93.696 262.187 93.696C264.129 93.696 265.547 94.144 266.443 95.04C267.414 95.8613 267.899 97.28 267.899 99.296C267.899 107.883 268.422 119.045 269.467 132.784C273.947 126.139 277.307 120.837 279.547 116.88C278.427 114.715 277.867 112.139 277.867 109.152C277.867 106.613 278.427 104.149 279.547 101.76C280.667 99.3707 282.198 97.4293 284.139 95.936C286.081 94.4427 288.283 93.696 290.747 93.696C292.913 93.696 294.667 94.48 296.011 96.048C297.355 97.5413 298.027 99.744 298.027 102.656C298.027 106.016 297.131 109.861 295.339 114.192C298.177 114.043 301.947 113.483 306.651 112.512L309.675 111.952ZM319.22 86.416C316.084 86.416 313.732 85.7067 312.164 84.288C310.596 82.7947 309.812 80.7413 309.812 78.128C309.812 75.5147 310.82 73.3493 312.836 71.632C314.927 69.84 317.503 68.944 320.564 68.944C323.327 68.944 325.567 69.616 327.284 70.96C329.001 72.304 329.86 74.208 329.86 76.672C329.86 79.6587 328.889 82.048 326.948 83.84C325.007 85.5573 322.431 86.416 319.22 86.416ZM318.324 146.56C313.471 146.56 309.924 144.843 307.684 141.408C305.519 137.973 304.436 133.419 304.436 127.744C304.436 124.384 304.847 120.091 305.668 114.864C306.564 109.563 307.684 104.635 309.028 100.08C309.7 97.6907 310.596 96.048 311.716 95.152C312.836 94.256 314.628 93.808 317.092 93.808C320.9 93.808 322.804 95.0773 322.804 97.616C322.804 99.4827 322.095 103.813 320.676 110.608C318.884 118.821 317.988 124.384 317.988 127.296C317.988 129.536 318.287 131.253 318.884 132.448C319.481 133.643 320.489 134.24 321.908 134.24C323.252 134.24 324.932 133.307 326.948 131.44C328.964 129.573 331.652 126.624 335.012 122.592C335.908 121.547 336.916 121.024 338.036 121.024C339.007 121.024 339.753 121.472 340.276 122.368C340.873 123.264 341.172 124.496 341.172 126.064C341.172 129.051 340.463 131.365 339.044 133.008C331.652 142.043 324.745 146.56 318.324 146.56ZM374.558 121.024C375.529 121.024 376.276 121.472 376.798 122.368C377.396 123.264 377.694 124.496 377.694 126.064C377.694 129.051 376.985 131.365 375.566 133.008C372.356 136.965 368.846 140.213 365.038 142.752C361.305 145.291 357.049 146.56 352.27 146.56C345.7 146.56 340.809 143.573 337.598 137.6C334.462 131.627 332.894 123.899 332.894 114.416C332.894 105.307 334.052 94.928 336.366 83.28C338.756 71.632 342.228 61.6267 346.782 53.264C351.412 44.9013 356.9 40.72 363.246 40.72C366.83 40.72 369.63 42.4 371.646 45.76C373.737 49.0453 374.782 53.7867 374.782 59.984C374.782 68.8693 372.318 79.1733 367.39 90.896C362.462 102.619 355.78 114.229 347.342 125.728C347.865 128.789 348.724 130.992 349.918 132.336C351.113 133.605 352.681 134.24 354.622 134.24C357.684 134.24 360.372 133.381 362.686 131.664C365.001 129.872 367.95 126.848 371.534 122.592C372.43 121.547 373.438 121.024 374.558 121.024ZM360.782 51.808C359.065 51.808 357.124 54.9067 354.958 61.104C352.793 67.3013 350.889 74.992 349.246 84.176C347.604 93.36 346.708 102.171 346.558 110.608C351.86 101.872 356.078 93.136 359.214 84.4C362.35 75.5893 363.918 67.5627 363.918 60.32C363.918 54.6453 362.873 51.808 360.782 51.808ZM383.314 86.416C380.178 86.416 377.826 85.7067 376.258 84.288C374.69 82.7947 373.906 80.7413 373.906 78.128C373.906 75.5147 374.914 73.3493 376.93 71.632C379.02 69.84 381.596 68.944 384.658 68.944C387.42 68.944 389.66 69.616 391.378 70.96C393.095 72.304 393.954 74.208 393.954 76.672C393.954 79.6587 392.983 82.048 391.042 83.84C389.1 85.5573 386.524 86.416 383.314 86.416ZM382.418 146.56C377.564 146.56 374.018 144.843 371.778 141.408C369.612 137.973 368.53 133.419 368.53 127.744C368.53 124.384 368.94 120.091 369.762 114.864C370.658 109.563 371.778 104.635 373.122 100.08C373.794 97.6907 374.69 96.048 375.81 95.152C376.93 94.256 378.722 93.808 381.186 93.808C384.994 93.808 386.898 95.0773 386.898 97.616C386.898 99.4827 386.188 103.813 384.77 110.608C382.978 118.821 382.082 124.384 382.082 127.296C382.082 129.536 382.38 131.253 382.978 132.448C383.575 133.643 384.583 134.24 386.002 134.24C387.346 134.24 389.026 133.307 391.042 131.44C393.058 129.573 395.746 126.624 399.106 122.592C400.002 121.547 401.01 121.024 402.13 121.024C403.1 121.024 403.847 121.472 404.37 122.368C404.967 123.264 405.266 124.496 405.266 126.064C405.266 129.051 404.556 131.365 403.138 133.008C395.746 142.043 388.839 146.56 382.418 146.56ZM452.738 111.952C452.962 111.877 453.335 111.84 453.858 111.84C454.978 111.84 455.837 112.213 456.434 112.96C457.031 113.707 457.33 114.715 457.33 115.984C457.33 118.299 456.882 120.128 455.986 121.472C455.09 122.741 453.746 123.675 451.954 124.272C448.519 125.392 444.861 125.952 440.978 125.952C437.693 125.952 434.594 125.504 431.682 124.608C429.517 128.117 427.127 131.739 424.514 135.472C421.527 139.728 418.951 142.64 416.786 144.208C414.621 145.776 412.157 146.56 409.394 146.56C406.333 146.56 403.906 145.365 402.114 142.976C400.397 140.587 399.314 136.816 398.866 131.664C397.97 121.211 397.522 112.064 397.522 104.224V100.304C397.597 97.84 398.269 96.1227 399.538 95.152C400.807 94.1813 402.711 93.696 405.25 93.696C407.191 93.696 408.61 94.144 409.506 95.04C410.477 95.8613 410.962 97.28 410.962 99.296C410.962 107.883 411.485 119.045 412.53 132.784C417.01 126.139 420.37 120.837 422.61 116.88C421.49 114.715 420.93 112.139 420.93 109.152C420.93 106.613 421.49 104.149 422.61 101.76C423.73 99.3707 425.261 97.4293 427.202 95.936C429.143 94.4427 431.346 93.696 433.81 93.696C435.975 93.696 437.73 94.48 439.074 96.048C440.418 97.5413 441.09 99.744 441.09 102.656C441.09 106.016 440.194 109.861 438.402 114.192C441.239 114.043 445.01 113.483 449.714 112.512L452.738 111.952ZM487.706 124.384C488.677 124.384 489.424 124.832 489.946 125.728C490.544 126.624 490.842 127.856 490.842 129.424C490.842 132.112 490.208 134.427 488.938 136.368C486.848 139.579 484.085 142.08 480.65 143.872C477.29 145.664 473.258 146.56 468.554 146.56C461.386 146.56 455.824 144.432 451.866 140.176C447.909 135.845 445.93 130.021 445.93 122.704C445.93 117.552 447.013 112.773 449.178 108.368C451.344 103.888 454.33 100.341 458.138 97.728C462.021 95.1147 466.389 93.808 471.242 93.808C475.573 93.808 479.045 95.1147 481.658 97.728C484.272 100.267 485.578 103.739 485.578 108.144C485.578 113.296 483.712 117.739 479.978 121.472C476.32 125.131 470.048 128.043 461.162 130.208C462.954 133.643 465.978 135.36 470.234 135.36C473.296 135.36 475.797 134.651 477.738 133.232C479.754 131.813 482.069 129.424 484.682 126.064C485.578 124.944 486.586 124.384 487.706 124.384ZM469.338 104.784C466.576 104.784 464.224 106.389 462.282 109.6C460.416 112.811 459.482 116.693 459.482 121.248V121.472C463.888 120.427 467.36 118.859 469.898 116.768C472.437 114.677 473.706 112.251 473.706 109.488C473.706 108.069 473.296 106.949 472.474 106.128C471.728 105.232 470.682 104.784 469.338 104.784Z" fill="black"/>
<circle cx="85" cy="116" r="42.5" stroke="#4FC04C" stroke-width="15"/>
<circle cx="121" cy="71" r="23" fill="#4064E2"/>
</svg>
